<?xml version="1.0" standalone="no"?>
<!DOCTYPE svg PUBLIC "-//W3C//DTD SVG 1.1//EN" 
  "http://www.w3.org/Graphics/SVG/1.1/DTD/svg11.dtd">
<svg width="1024" height="1024" viewBox="0 0 1024 1024"
     xmlns="http://www.w3.org/2000/svg" version="1.1">
<desc>e-model.blend, (Blender 4.4.3)</desc>
<polygon stroke="black" stroke-width="1" fill="rgb(204, 204, 204)" fill-opacity="0" points="885.576,312.004 896.091,346.375 931.361,311.181 920.168,275.750 " />
<polygon stroke="black" stroke-width="1" fill="rgb(204, 204, 204)" fill-opacity="0" points="885.576,312.004 865.286,318.333 759.029,320.677 710.791,320.466 711.517,346.132 896.091,346.375 " />
<polygon stroke="black" stroke-width="1" fill="rgb(204, 204, 204)" fill-opacity="0" points="313.951,346.132 711.517,346.132 710.791,320.466 314.677,320.466 " />
<polygon stroke="black" stroke-width="1" fill="rgb(204, 204, 204)" fill-opacity="0" points="314.677,320.466 266.440,320.678 160.183,318.333 139.895,312.004 129.378,346.375 313.951,346.132 " />
<polygon stroke="black" stroke-width="1" fill="rgb(204, 204, 204)" fill-opacity="0" points="139.895,312.004 105.301,275.749 94.109,311.180 129.378,346.375 " />
<polygon stroke="black" stroke-width="1" fill="rgb(204, 204, 204)" fill-opacity="0" points="313.951,346.132 129.378,346.375 126.800,713.099 313.951,712.855 " />
<polygon stroke="black" stroke-width="1" fill="rgb(204, 204, 204)" fill-opacity="0" points="129.378,346.375 94.109,311.180 41.707,716.544 126.800,713.099 " />
<polygon stroke="black" stroke-width="1" fill="rgb(204, 204, 204)" fill-opacity="0" points="105.301,275.749 50.745,275.876 38.485,309.553 94.109,311.180 " />
<polygon stroke="black" stroke-width="1" fill="rgb(204, 204, 204)" fill-opacity="0" points="94.109,311.180 38.485,309.553 41.707,716.544 " />
<polygon stroke="black" stroke-width="1" fill="rgb(204, 204, 204)" fill-opacity="0" points="126.800,713.099 41.707,716.544 41.707,718.197 126.800,718.073 " />
<polygon stroke="black" stroke-width="1" fill="rgb(204, 204, 204)" fill-opacity="0" points="38.485,309.553 13.146,310.396 14.482,717.398 41.707,716.544 " />
<polygon stroke="black" stroke-width="1" fill="rgb(204, 204, 204)" fill-opacity="0" points="41.707,716.544 14.482,717.398 14.543,718.236 41.707,718.197 " />
<polygon stroke="black" stroke-width="1" fill="rgb(204, 204, 204)" fill-opacity="0" points="50.745,275.876 27.511,276.898 13.146,310.396 38.485,309.553 " />
<polygon stroke="black" stroke-width="1" fill="rgb(204, 204, 204)" fill-opacity="0" points="983.761,716.544 983.761,720.753 1009.213,721.887 1009.524,717.352 " />
<polygon stroke="black" stroke-width="1" fill="rgb(204, 204, 204)" fill-opacity="0" points="986.984,309.553 983.761,716.544 1009.524,717.352 1011.550,310.371 " />
<polygon stroke="black" stroke-width="1" fill="rgb(204, 204, 204)" fill-opacity="0" points="974.724,275.877 986.984,309.553 1011.550,310.371 997.288,276.868 " />
<polygon stroke="black" stroke-width="1" fill="rgb(204, 204, 204)" fill-opacity="0" points="920.168,275.750 931.361,311.181 986.984,309.553 974.724,275.877 " />
<polygon stroke="black" stroke-width="1" fill="rgb(204, 204, 204)" fill-opacity="0" points="931.361,311.181 983.761,716.544 986.984,309.553 " />
<polygon stroke="black" stroke-width="1" fill="rgb(204, 204, 204)" fill-opacity="0" points="896.091,346.375 898.669,713.099 983.761,716.544 931.361,311.181 " />
<polygon stroke="black" stroke-width="1" fill="rgb(204, 204, 204)" fill-opacity="0" points="898.669,713.099 898.669,718.745 983.761,720.753 983.761,716.544 " />
<polygon stroke="black" stroke-width="1" fill="rgb(204, 204, 204)" fill-opacity="0" points="711.518,712.855 711.518,717.224 898.669,718.745 898.669,713.099 " />
<polygon stroke="black" stroke-width="1" fill="rgb(204, 204, 204)" fill-opacity="0" points="711.517,346.132 711.518,712.855 898.669,713.099 896.091,346.375 " />
<polygon stroke="black" stroke-width="1" fill="rgb(204, 204, 204)" fill-opacity="0" points="313.951,717.801 711.518,717.224 711.518,712.855 313.951,712.855 " />
<polygon stroke="black" stroke-width="1" fill="rgb(204, 204, 204)" fill-opacity="0" points="313.951,712.855 126.800,713.099 126.800,718.073 313.951,717.801 " />
<polygon stroke="black" stroke-width="1" fill="rgb(204, 204, 204)" fill-opacity="0" points="313.951,712.855 711.518,712.855 711.517,346.132 313.951,346.132 " />

</svg>
