{
	"asset":{
		"generator":"Khronos glTF Blender I/O v4.4.56",
		"version":"2.0"
	},
	"extensionsUsed":[
		"KHR_lights_punctual",
		"KHR_materials_clearcoat",
		"KHR_materials_specular"
	],
	"extensionsRequired":[
		"KHR_lights_punctual"
	],
	"extensions":{
		"KHR_lights_punctual":{
			"lights":[
				{
					"color":[
						1,
						0.8409091234207153,
						0.507489800453186
					],
					"intensity":5477.65966129303,
					"type":"directional",
					"name":"Sun"
				},
				{
					"color":[
						1,
						0.8069531917572021,
						0.351532906293869
					],
					"intensity":2543.646090016452,
					"type":"point",
					"name":"Point.001"
				},
				{
					"color":[
						1,
						0.8069531917572021,
						0.351532906293869
					],
					"intensity":2543.646090016452,
					"type":"point",
					"name":"Point"
				},
				{
					"color":[
						1,
						0,
						0.005423791240900755
					],
					"intensity":260.88676716617084,
					"type":"point",
					"name":"Point.002"
				},
				{
					"color":[
						1,
						0,
						0
					],
					"intensity":260.88676716617084,
					"type":"point",
					"name":"Point.005"
				},
				{
					"color":[
						1,
						0,
						0
					],
					"intensity":260.88676716617084,
					"type":"point",
					"name":"Point.004"
				},
				{
					"color":[
						1,
						0,
						0
					],
					"intensity":260.88676716617084,
					"type":"point",
					"name":"Point.006"
				},
				{
					"color":[
						1,
						0,
						0.005423791240900755
					],
					"intensity":260.88676716617084,
					"type":"point",
					"name":"Point.003"
				}
			]
		}
	},
	"scene":0,
	"scenes":[
		{
			"name":"Scene",
			"nodes":[
				0,
				18
			]
		}
	],
	"nodes":[
		{
			"extensions":{
				"KHR_lights_punctual":{
					"light":0
				}
			},
			"name":"Sun",
			"rotation":[
				-0.6409759521484375,
				-0.29857969284057617,
				0.298579603433609,
				0.6409760117530823
			],
			"translation":[
				-21.80010986328125,
				23.476970672607422,
				0.06373107433319092
			]
		},
		{
			"mesh":0,
			"name":"body inside new",
			"translation":[
				0,
				0,
				-1.723227620124817
			]
		},
		{
			"extensions":{
				"KHR_lights_punctual":{
					"light":1
				}
			},
			"name":"headlight left",
			"rotation":[
				-1,
				0,
				0,
				5.486322152137291e-08
			],
			"scale":[
				100,
				99.99999237060547,
				99.99999237060547
			],
			"translation":[
				-235.9119110107422,
				385.3738708496094,
				-301.5013732910156
			]
		},
		{
			"extensions":{
				"KHR_lights_punctual":{
					"light":2
				}
			},
			"name":"headlight right",
			"rotation":[
				-1,
				0,
				0,
				5.486322152137291e-08
			],
			"scale":[
				100,
				99.99999237060547,
				99.99999237060547
			],
			"translation":[
				241.58363342285156,
				386.9313049316406,
				-299.36224365234375
			]
		},
		{
			"mesh":1,
			"name":"lid new",
			"translation":[
				0,
				447.187255859375,
				-637.428955078125
			]
		},
		{
			"mesh":2,
			"name":"robot flag new",
			"translation":[
				-301.24884033203125,
				198.68020629882812,
				-535.9159545898438
			]
		},
		{
			"mesh":3,
			"name":"robot paintable body new"
		},
		{
			"extensions":{
				"KHR_lights_punctual":{
					"light":3
				}
			},
			"name":"tail light left",
			"rotation":[
				-1,
				0,
				0,
				5.486322152137291e-08
			],
			"scale":[
				100,
				99.99999237060547,
				99.99999237060547
			],
			"translation":[
				250.51010131835938,
				-326.2228088378906,
				-602.5731811523438
			]
		},
		{
			"extensions":{
				"KHR_lights_punctual":{
					"light":4
				}
			},
			"name":"tail light middle left",
			"rotation":[
				-1,
				0,
				0,
				5.486322152137291e-08
			],
			"scale":[
				100,
				99.99999237060547,
				99.99999237060547
			],
			"translation":[
				38.204105377197266,
				-384.3683776855469,
				-602.5731811523438
			]
		},
		{
			"extensions":{
				"KHR_lights_punctual":{
					"light":5
				}
			},
			"name":"tail light middle middle",
			"rotation":[
				-1,
				0,
				0,
				5.486322152137291e-08
			],
			"scale":[
				100,
				99.99999237060547,
				99.99999237060547
			],
			"translation":[
				-0.017714500427246094,
				-384.3683776855469,
				-602.5731811523438
			]
		},
		{
			"extensions":{
				"KHR_lights_punctual":{
					"light":6
				}
			},
			"name":"tail light middle right",
			"rotation":[
				-1,
				0,
				0,
				5.486322152137291e-08
			],
			"scale":[
				100,
				99.99999237060547,
				99.99999237060547
			],
			"translation":[
				-47.829254150390625,
				-384.3683776855469,
				-602.5731811523438
			]
		},
		{
			"extensions":{
				"KHR_lights_punctual":{
					"light":7
				}
			},
			"name":"tail light right",
			"rotation":[
				-1,
				0,
				0,
				5.486322152137291e-08
			],
			"scale":[
				100,
				99.99999237060547,
				99.99999237060547
			],
			"translation":[
				-248.99888610839844,
				-326.2228088378906,
				-602.5731811523438
			]
		},
		{
			"mesh":4,
			"name":"wheel back left",
			"translation":[
				-322.37396240234375,
				-232.13656616210938,
				-139.72314453125
			]
		},
		{
			"mesh":5,
			"name":"wheel back right",
			"rotation":[
				0,
				1,
				0,
				1.6292067073209182e-07
			],
			"translation":[
				322.2569885253906,
				-232.13656616210938,
				-139.72315979003906
			]
		},
		{
			"mesh":6,
			"name":"wheel front left",
			"translation":[
				-322.37396240234375,
				348.385986328125,
				-139.7230987548828
			]
		},
		{
			"mesh":7,
			"name":"wheel front right",
			"rotation":[
				0,
				1,
				0,
				1.6292067073209182e-07
			],
			"translation":[
				322.2569885253906,
				348.385986328125,
				-139.72311401367188
			]
		},
		{
			"mesh":8,
			"name":"wheel middle left",
			"translation":[
				-322.37396240234375,
				50.27151107788086,
				-139.72312927246094
			]
		},
		{
			"mesh":9,
			"name":"wheel middle right",
			"rotation":[
				0,
				1,
				0,
				1.6292067073209182e-07
			],
			"translation":[
				322.2569885253906,
				50.27151107788086,
				-139.72314453125
			]
		},
		{
			"children":[
				1,
				2,
				3,
				4,
				5,
				6,
				7,
				8,
				9,
				10,
				11,
				12,
				13,
				14,
				15,
				16,
				17
			],
			"mesh":10,
			"name":"robot new",
			"rotation":[
				0.7071068286895752,
				0,
				0,
				0.7071068286895752
			],
			"scale":[
				0.009999999776482582,
				0.009999999776482582,
				0.009999999776482582
			]
		}
	],
	"animations":[
		{
			"channels":[
				{
					"sampler":0,
					"target":{
						"node":4,
						"path":"translation"
					}
				},
				{
					"sampler":1,
					"target":{
						"node":4,
						"path":"rotation"
					}
				}
			],
			"name":"open lid",
			"samplers":[
				{
					"input":44,
					"interpolation":"LINEAR",
					"output":45
				},
				{
					"input":44,
					"interpolation":"LINEAR",
					"output":46
				}
			]
		}
	],
	"materials":[
		{
			"doubleSided":true,
			"extensions":{
				"KHR_materials_specular":{
					"specularColorFactor":[
						1.4436113834381104,
						1.4436113834381104,
						1.4436113834381104
					]
				}
			},
			"name":"body inside new",
			"pbrMetallicRoughness":{
				"baseColorTexture":{
					"index":0
				},
				"metallicFactor":0.13181816041469574,
				"roughnessFactor":0.9659091234207153
			}
		},
		{
			"doubleSided":true,
			"extensions":{
				"KHR_materials_specular":{
					"specularColorFactor":[
						1.3193877935409546,
						1.3193877935409546,
						1.3193877935409546
					]
				}
			},
			"name":"body paintable new",
			"normalTexture":{
				"index":1
			},
			"pbrMetallicRoughness":{
				"baseColorTexture":{
					"index":2,
					"texCoord":1
				},
				"metallicFactor":0.8863636255264282,
				"roughnessFactor":0.761363685131073
			}
		},
		{
			"doubleSided":true,
			"extensions":{
				"KHR_materials_specular":{
					"specularColorFactor":[
						1.3193877935409546,
						1.3193877935409546,
						1.3193877935409546
					]
				}
			},
			"name":"body new",
			"normalTexture":{
				"index":3
			},
			"pbrMetallicRoughness":{
				"baseColorTexture":{
					"index":4
				},
				"metallicFactor":0.8863636255264282,
				"roughnessFactor":0.761363685131073
			}
		},
		{
			"doubleSided":true,
			"extensions":{
				"KHR_materials_clearcoat":{
					"clearcoatRoughnessFactor":0.23134228587150574
				},
				"KHR_materials_specular":{
					"specularFactor":0.2909089922904968,
					"specularColorFactor":[
						0.2947111129760742,
						0.2947111129760742,
						0.2947111129760742
					]
				}
			},
			"name":"wheel",
			"normalTexture":{
				"index":5
			},
			"pbrMetallicRoughness":{
				"baseColorTexture":{
					"index":6
				},
				"metallicFactor":0.9295454621315002,
				"roughnessFactor":0.7613636255264282
			}
		}
	],
	"meshes":[
		{
			"name":"Cube.015",
			"primitives":[
				{
					"attributes":{
						"POSITION":0,
						"NORMAL":1,
						"TEXCOORD_0":2
					},
					"indices":3,
					"material":0
				}
			]
		},
		{
			"name":"Cube.002",
			"primitives":[
				{
					"attributes":{
						"POSITION":4,
						"NORMAL":5,
						"TEXCOORD_0":6,
						"TEXCOORD_1":7,
						"TEXCOORD_2":8,
						"TEXCOORD_3":9
					},
					"indices":10,
					"material":1
				}
			]
		},
		{
			"name":"Cube.016",
			"primitives":[
				{
					"attributes":{
						"POSITION":11,
						"NORMAL":12,
						"TEXCOORD_0":13
					},
					"indices":14,
					"material":2
				}
			]
		},
		{
			"name":"Cube.001",
			"primitives":[
				{
					"attributes":{
						"POSITION":15,
						"NORMAL":16,
						"TEXCOORD_0":17,
						"TEXCOORD_1":18,
						"TEXCOORD_2":19
					},
					"indices":20,
					"material":1
				}
			]
		},
		{
			"name":"Cube.007",
			"primitives":[
				{
					"attributes":{
						"POSITION":21,
						"NORMAL":22,
						"TEXCOORD_0":23
					},
					"indices":24,
					"material":3
				}
			]
		},
		{
			"name":"Cube.012",
			"primitives":[
				{
					"attributes":{
						"POSITION":25,
						"NORMAL":26,
						"TEXCOORD_0":27
					},
					"indices":24,
					"material":3
				}
			]
		},
		{
			"name":"Cube.009",
			"primitives":[
				{
					"attributes":{
						"POSITION":28,
						"NORMAL":29,
						"TEXCOORD_0":30
					},
					"indices":24,
					"material":3
				}
			]
		},
		{
			"name":"Cube.010",
			"primitives":[
				{
					"attributes":{
						"POSITION":31,
						"NORMAL":32,
						"TEXCOORD_0":33
					},
					"indices":24,
					"material":3
				}
			]
		},
		{
			"name":"Cube.008",
			"primitives":[
				{
					"attributes":{
						"POSITION":34,
						"NORMAL":35,
						"TEXCOORD_0":36
					},
					"indices":24,
					"material":3
				}
			]
		},
		{
			"name":"Cube.011",
			"primitives":[
				{
					"attributes":{
						"POSITION":37,
						"NORMAL":38,
						"TEXCOORD_0":39
					},
					"indices":24,
					"material":3
				}
			]
		},
		{
			"name":"Cube.013",
			"primitives":[
				{
					"attributes":{
						"POSITION":40,
						"NORMAL":41,
						"TEXCOORD_0":42
					},
					"indices":43,
					"material":2
				}
			]
		}
	],
	"textures":[
		{
			"sampler":0,
			"source":0
		},
		{
			"sampler":0,
			"source":1
		},
		{
			"sampler":0,
			"source":2
		},
		{
			"sampler":0,
			"source":1
		},
		{
			"sampler":0,
			"source":0
		},
		{
			"sampler":0,
			"source":1
		},
		{
			"sampler":0,
			"source":0
		}
	],
	"images":[
		{
			"mimeType":"image/png",
			"name":"e-model_d",
			"uri":"e-model_d.png"
		},
		{
			"mimeType":"image/png",
			"name":"e-model_n",
			"uri":"e-model_n.png"
		},
		{
			"mimeType":"image/png",
			"name":"overlay_stencil",
			"uri":"overlay_stencil.png"
		}
	],
	"accessors":[
		{
			"bufferView":0,
			"componentType":5126,
			"count":194,
			"max":[
				287.5730285644531,
				459.8314514160156,
				-278.1829528808594
			],
			"min":[
				-287.4126892089844,
				-388.1640319824219,
				-626.232177734375
			],
			"type":"VEC3"
		},
		{
			"bufferView":1,
			"componentType":5126,
			"count":194,
			"type":"VEC3"
		},
		{
			"bufferView":2,
			"componentType":5126,
			"count":194,
			"type":"VEC2"
		},
		{
			"bufferView":3,
			"componentType":5123,
			"count":531,
			"type":"SCALAR"
		},
		{
			"bufferView":4,
			"componentType":5126,
			"count":252,
			"max":[
				303.71099853515625,
				12.412078857421875,
				11.05657958984375
			],
			"min":[
				-303.71112060546875,
				-856.5379028320312,
				-71.68304443359375
			],
			"type":"VEC3"
		},
		{
			"bufferView":5,
			"componentType":5126,
			"count":252,
			"type":"VEC3"
		},
		{
			"bufferView":6,
			"componentType":5126,
			"count":252,
			"type":"VEC2"
		},
		{
			"bufferView":7,
			"componentType":5126,
			"count":252,
			"type":"VEC2"
		},
		{
			"bufferView":8,
			"componentType":5126,
			"count":252,
			"type":"VEC2"
		},
		{
			"bufferView":9,
			"componentType":5126,
			"count":252,
			"type":"VEC2"
		},
		{
			"bufferView":10,
			"componentType":5123,
			"count":900,
			"type":"SCALAR"
		},
		{
			"bufferView":11,
			"componentType":5126,
			"count":110,
			"max":[
				61.22216796875,
				34.22845458984375,
				34.255279541015625
			],
			"min":[
				-88.67636108398438,
				-115.1656494140625,
				-841.2546997070312
			],
			"type":"VEC3"
		},
		{
			"bufferView":12,
			"componentType":5126,
			"count":110,
			"type":"VEC3"
		},
		{
			"bufferView":13,
			"componentType":5126,
			"count":110,
			"type":"VEC2"
		},
		{
			"bufferView":14,
			"componentType":5123,
			"count":168,
			"type":"SCALAR"
		},
		{
			"bufferView":15,
			"componentType":5126,
			"count":257,
			"max":[
				294.85943603515625,
				450.1839599609375,
				-256.22149658203125
			],
			"min":[
				-301.25103759765625,
				-392.8455810546875,
				-585.010498046875
			],
			"type":"VEC3"
		},
		{
			"bufferView":16,
			"componentType":5126,
			"count":257,
			"type":"VEC3"
		},
		{
			"bufferView":17,
			"componentType":5126,
			"count":257,
			"type":"VEC2"
		},
		{
			"bufferView":18,
			"componentType":5126,
			"count":257,
			"type":"VEC2"
		},
		{
			"bufferView":19,
			"componentType":5126,
			"count":257,
			"type":"VEC2"
		},
		{
			"bufferView":20,
			"componentType":5123,
			"count":672,
			"type":"SCALAR"
		},
		{
			"bufferView":21,
			"componentType":5126,
			"count":130,
			"max":[
				22.382362365722656,
				139.2126007080078,
				139.2000732421875
			],
			"min":[
				-22.382362365722656,
				-139.21261596679688,
				-139.2001190185547
			],
			"type":"VEC3"
		},
		{
			"bufferView":22,
			"componentType":5126,
			"count":130,
			"type":"VEC3"
		},
		{
			"bufferView":23,
			"componentType":5126,
			"count":130,
			"type":"VEC2"
		},
		{
			"bufferView":24,
			"componentType":5123,
			"count":372,
			"type":"SCALAR"
		},
		{
			"bufferView":25,
			"componentType":5126,
			"count":130,
			"max":[
				22.382362365722656,
				139.2126007080078,
				139.2000732421875
			],
			"min":[
				-22.382362365722656,
				-139.21261596679688,
				-139.2001190185547
			],
			"type":"VEC3"
		},
		{
			"bufferView":26,
			"componentType":5126,
			"count":130,
			"type":"VEC3"
		},
		{
			"bufferView":27,
			"componentType":5126,
			"count":130,
			"type":"VEC2"
		},
		{
			"bufferView":28,
			"componentType":5126,
			"count":130,
			"max":[
				22.382362365722656,
				139.2126007080078,
				139.2000732421875
			],
			"min":[
				-22.382362365722656,
				-139.21261596679688,
				-139.2001190185547
			],
			"type":"VEC3"
		},
		{
			"bufferView":29,
			"componentType":5126,
			"count":130,
			"type":"VEC3"
		},
		{
			"bufferView":30,
			"componentType":5126,
			"count":130,
			"type":"VEC2"
		},
		{
			"bufferView":31,
			"componentType":5126,
			"count":130,
			"max":[
				22.382362365722656,
				139.2126007080078,
				139.2000732421875
			],
			"min":[
				-22.382362365722656,
				-139.21261596679688,
				-139.2001190185547
			],
			"type":"VEC3"
		},
		{
			"bufferView":32,
			"componentType":5126,
			"count":130,
			"type":"VEC3"
		},
		{
			"bufferView":33,
			"componentType":5126,
			"count":130,
			"type":"VEC2"
		},
		{
			"bufferView":34,
			"componentType":5126,
			"count":130,
			"max":[
				22.382362365722656,
				139.2126007080078,
				139.2000732421875
			],
			"min":[
				-22.382362365722656,
				-139.21261596679688,
				-139.2001190185547
			],
			"type":"VEC3"
		},
		{
			"bufferView":35,
			"componentType":5126,
			"count":130,
			"type":"VEC3"
		},
		{
			"bufferView":36,
			"componentType":5126,
			"count":130,
			"type":"VEC2"
		},
		{
			"bufferView":37,
			"componentType":5126,
			"count":130,
			"max":[
				22.382362365722656,
				139.2126007080078,
				139.2000732421875
			],
			"min":[
				-22.382362365722656,
				-139.21261596679688,
				-139.2001190185547
			],
			"type":"VEC3"
		},
		{
			"bufferView":38,
			"componentType":5126,
			"count":130,
			"type":"VEC3"
		},
		{
			"bufferView":39,
			"componentType":5126,
			"count":130,
			"type":"VEC2"
		},
		{
			"bufferView":40,
			"componentType":5126,
			"count":606,
			"max":[
				301.162109375,
				459.8313293457031,
				-102.25975799560547
			],
			"min":[
				-303.64910888671875,
				-392.3974914550781,
				-626.2005004882812
			],
			"type":"VEC3"
		},
		{
			"bufferView":41,
			"componentType":5126,
			"count":606,
			"type":"VEC3"
		},
		{
			"bufferView":42,
			"componentType":5126,
			"count":606,
			"type":"VEC2"
		},
		{
			"bufferView":43,
			"componentType":5123,
			"count":1491,
			"type":"SCALAR"
		},
		{
			"bufferView":44,
			"componentType":5126,
			"count":40,
			"max":[
				0.6666666666666666
			],
			"min":[
				0.016666666666666666
			],
			"type":"SCALAR"
		},
		{
			"bufferView":45,
			"componentType":5126,
			"count":40,
			"type":"VEC3"
		},
		{
			"bufferView":46,
			"componentType":5126,
			"count":40,
			"type":"VEC4"
		}
	],
	"bufferViews":[
		{
			"buffer":0,
			"byteLength":2328,
			"byteOffset":0,
			"target":34962
		},
		{
			"buffer":0,
			"byteLength":2328,
			"byteOffset":2328,
			"target":34962
		},
		{
			"buffer":0,
			"byteLength":1552,
			"byteOffset":4656,
			"target":34962
		},
		{
			"buffer":0,
			"byteLength":1062,
			"byteOffset":6208,
			"target":34963
		},
		{
			"buffer":0,
			"byteLength":3024,
			"byteOffset":7272,
			"target":34962
		},
		{
			"buffer":0,
			"byteLength":3024,
			"byteOffset":10296,
			"target":34962
		},
		{
			"buffer":0,
			"byteLength":2016,
			"byteOffset":13320,
			"target":34962
		},
		{
			"buffer":0,
			"byteLength":2016,
			"byteOffset":15336,
			"target":34962
		},
		{
			"buffer":0,
			"byteLength":2016,
			"byteOffset":17352,
			"target":34962
		},
		{
			"buffer":0,
			"byteLength":2016,
			"byteOffset":19368,
			"target":34962
		},
		{
			"buffer":0,
			"byteLength":1800,
			"byteOffset":21384,
			"target":34963
		},
		{
			"buffer":0,
			"byteLength":1320,
			"byteOffset":23184,
			"target":34962
		},
		{
			"buffer":0,
			"byteLength":1320,
			"byteOffset":24504,
			"target":34962
		},
		{
			"buffer":0,
			"byteLength":880,
			"byteOffset":25824,
			"target":34962
		},
		{
			"buffer":0,
			"byteLength":336,
			"byteOffset":26704,
			"target":34963
		},
		{
			"buffer":0,
			"byteLength":3084,
			"byteOffset":27040,
			"target":34962
		},
		{
			"buffer":0,
			"byteLength":3084,
			"byteOffset":30124,
			"target":34962
		},
		{
			"buffer":0,
			"byteLength":2056,
			"byteOffset":33208,
			"target":34962
		},
		{
			"buffer":0,
			"byteLength":2056,
			"byteOffset":35264,
			"target":34962
		},
		{
			"buffer":0,
			"byteLength":2056,
			"byteOffset":37320,
			"target":34962
		},
		{
			"buffer":0,
			"byteLength":1344,
			"byteOffset":39376,
			"target":34963
		},
		{
			"buffer":0,
			"byteLength":1560,
			"byteOffset":40720,
			"target":34962
		},
		{
			"buffer":0,
			"byteLength":1560,
			"byteOffset":42280,
			"target":34962
		},
		{
			"buffer":0,
			"byteLength":1040,
			"byteOffset":43840,
			"target":34962
		},
		{
			"buffer":0,
			"byteLength":744,
			"byteOffset":44880,
			"target":34963
		},
		{
			"buffer":0,
			"byteLength":1560,
			"byteOffset":45624,
			"target":34962
		},
		{
			"buffer":0,
			"byteLength":1560,
			"byteOffset":47184,
			"target":34962
		},
		{
			"buffer":0,
			"byteLength":1040,
			"byteOffset":48744,
			"target":34962
		},
		{
			"buffer":0,
			"byteLength":1560,
			"byteOffset":49784,
			"target":34962
		},
		{
			"buffer":0,
			"byteLength":1560,
			"byteOffset":51344,
			"target":34962
		},
		{
			"buffer":0,
			"byteLength":1040,
			"byteOffset":52904,
			"target":34962
		},
		{
			"buffer":0,
			"byteLength":1560,
			"byteOffset":53944,
			"target":34962
		},
		{
			"buffer":0,
			"byteLength":1560,
			"byteOffset":55504,
			"target":34962
		},
		{
			"buffer":0,
			"byteLength":1040,
			"byteOffset":57064,
			"target":34962
		},
		{
			"buffer":0,
			"byteLength":1560,
			"byteOffset":58104,
			"target":34962
		},
		{
			"buffer":0,
			"byteLength":1560,
			"byteOffset":59664,
			"target":34962
		},
		{
			"buffer":0,
			"byteLength":1040,
			"byteOffset":61224,
			"target":34962
		},
		{
			"buffer":0,
			"byteLength":1560,
			"byteOffset":62264,
			"target":34962
		},
		{
			"buffer":0,
			"byteLength":1560,
			"byteOffset":63824,
			"target":34962
		},
		{
			"buffer":0,
			"byteLength":1040,
			"byteOffset":65384,
			"target":34962
		},
		{
			"buffer":0,
			"byteLength":7272,
			"byteOffset":66424,
			"target":34962
		},
		{
			"buffer":0,
			"byteLength":7272,
			"byteOffset":73696,
			"target":34962
		},
		{
			"buffer":0,
			"byteLength":4848,
			"byteOffset":80968,
			"target":34962
		},
		{
			"buffer":0,
			"byteLength":2982,
			"byteOffset":85816,
			"target":34963
		},
		{
			"buffer":0,
			"byteLength":160,
			"byteOffset":88800
		},
		{
			"buffer":0,
			"byteLength":480,
			"byteOffset":88960
		},
		{
			"buffer":0,
			"byteLength":640,
			"byteOffset":89440
		}
	],
	"samplers":[
		{
			"magFilter":9729,
			"minFilter":9987
		}
	],
	"buffers":[
		{
			"byteLength":90080,
			"uri":"e-model.bin"
		}
	]
}
