{
	"asset":{
		"generator":"Khronos glTF Blender I/O v4.4.56",
		"version":"2.0"
	},
	"extensionsUsed":[
		"KHR_lights_punctual",
		"KHR_materials_clearcoat",
		"KHR_materials_specular"
	],
	"extensionsRequired":[
		"KHR_lights_punctual"
	],
	"extensions":{
		"KHR_lights_punctual":{
			"lights":[
				{
					"color":[
						1,
						0.8409091234207153,
						0.507489800453186
					],
					"intensity":5477.65966129303,
					"type":"directional",
					"name":"Sun"
				},
				{
					"color":[
						1,
						0.8069531917572021,
						0.351532906293869
					],
					"intensity":2543.646090016452,
					"type":"point",
					"name":"Point.001"
				},
				{
					"color":[
						1,
						0.8069531917572021,
						0.351532906293869
					],
					"intensity":2543.646090016452,
					"type":"point",
					"name":"Point"
				},
				{
					"color":[
						1,
						0,
						0.005423791240900755
					],
					"intensity":260.88676716617084,
					"type":"point",
					"name":"Point.002"
				},
				{
					"color":[
						1,
						0,
						0
					],
					"intensity":260.88676716617084,
					"type":"point",
					"name":"Point.005"
				},
				{
					"color":[
						1,
						0,
						0
					],
					"intensity":260.88676716617084,
					"type":"point",
					"name":"Point.004"
				},
				{
					"color":[
						1,
						0,
						0
					],
					"intensity":260.88676716617084,
					"type":"point",
					"name":"Point.006"
				},
				{
					"color":[
						1,
						0,
						0.005423791240900755
					],
					"intensity":260.88676716617084,
					"type":"point",
					"name":"Point.003"
				}
			]
		}
	},
	"scene":0,
	"scenes":[
		{
			"name":"Scene",
			"nodes":[
				0,
				23
			]
		}
	],
	"nodes":[
		{
			"extensions":{
				"KHR_lights_punctual":{
					"light":0
				}
			},
			"name":"Sun",
			"rotation":[
				-0.6409759521484375,
				-0.29857969284057617,
				0.298579603433609,
				0.6409760117530823
			],
			"translation":[
				-21.80010986328125,
				23.476970672607422,
				0.06373107433319092
			]
		},
		{
			"mesh":0,
			"name":"body back"
		},
		{
			"mesh":1,
			"name":"body front"
		},
		{
			"mesh":2,
			"name":"body inside",
			"translation":[
				0,
				0,
				-1.723227620124817
			]
		},
		{
			"mesh":3,
			"name":"body left"
		},
		{
			"mesh":4,
			"name":"body right"
		},
		{
			"extensions":{
				"KHR_lights_punctual":{
					"light":1
				}
			},
			"name":"headlight left",
			"rotation":[
				-1,
				0,
				0,
				5.486322152137291e-08
			],
			"scale":[
				100,
				99.99999237060547,
				99.99999237060547
			],
			"translation":[
				-235.9119110107422,
				385.3738708496094,
				-301.5013732910156
			]
		},
		{
			"extensions":{
				"KHR_lights_punctual":{
					"light":2
				}
			},
			"name":"headlight right",
			"rotation":[
				-1,
				0,
				0,
				5.486322152137291e-08
			],
			"scale":[
				100,
				99.99999237060547,
				99.99999237060547
			],
			"translation":[
				241.58363342285156,
				386.9313049316406,
				-299.36224365234375
			]
		},
		{
			"mesh":5,
			"name":"lid inside",
			"translation":[
				0,
				-8.88980648596771e-05,
				-0.00014161747822072357
			]
		},
		{
			"children":[
				8
			],
			"mesh":6,
			"name":"lid",
			"translation":[
				0,
				447.187255859375,
				-637.428955078125
			]
		},
		{
			"mesh":7,
			"name":"robot flag new",
			"translation":[
				-301.24884033203125,
				198.68020629882812,
				-535.9159545898438
			]
		},
		{
			"mesh":8,
			"name":"wheel back left",
			"rotation":[
				0.5173383355140686,
				0,
				0,
				0.8557809591293335
			],
			"translation":[
				-322.3815002441406,
				-143.059326171875,
				1.9257161617279053
			]
		},
		{
			"mesh":9,
			"name":"wheel back right",
			"rotation":[
				0,
				0.9659258127212524,
				-0.2588191032409668,
				5.367111270970781e-07
			],
			"translation":[
				322.2494812011719,
				-143.059326171875,
				1.9257161617279053
			]
		},
		{
			"mesh":10,
			"name":"wheel middle left",
			"translation":[
				-322.3815002441406,
				139.34913635253906,
				1.9256534576416016
			]
		},
		{
			"mesh":11,
			"name":"wheel middle right",
			"rotation":[
				0,
				1,
				0,
				2.821299744937278e-07
			],
			"translation":[
				322.24945068359375,
				139.34915161132812,
				1.9256078004837036
			]
		},
		{
			"children":[
				11,
				12,
				13,
				14
			],
			"mesh":12,
			"name":"rocker-bogie",
			"rotation":[
				-0.0067129237577319145,
				0,
				0,
				0.9999774694442749
			],
			"translation":[
				0.00750677939504385,
				-89.0776596069336,
				-141.64874267578125
			]
		},
		{
			"extensions":{
				"KHR_lights_punctual":{
					"light":3
				}
			},
			"name":"tail light left",
			"rotation":[
				-1,
				0,
				0,
				5.486322152137291e-08
			],
			"scale":[
				100,
				99.99999237060547,
				99.99999237060547
			],
			"translation":[
				250.51010131835938,
				-326.2228088378906,
				-602.5731811523438
			]
		},
		{
			"extensions":{
				"KHR_lights_punctual":{
					"light":4
				}
			},
			"name":"tail light middle left",
			"rotation":[
				-1,
				0,
				0,
				5.486322152137291e-08
			],
			"scale":[
				100,
				99.99999237060547,
				99.99999237060547
			],
			"translation":[
				38.204105377197266,
				-384.3683776855469,
				-602.5731811523438
			]
		},
		{
			"extensions":{
				"KHR_lights_punctual":{
					"light":5
				}
			},
			"name":"tail light middle middle",
			"rotation":[
				-1,
				0,
				0,
				5.486322152137291e-08
			],
			"scale":[
				100,
				99.99999237060547,
				99.99999237060547
			],
			"translation":[
				-0.017714500427246094,
				-384.3683776855469,
				-602.5731811523438
			]
		},
		{
			"extensions":{
				"KHR_lights_punctual":{
					"light":6
				}
			},
			"name":"tail light middle right",
			"rotation":[
				-1,
				0,
				0,
				5.486322152137291e-08
			],
			"scale":[
				100,
				99.99999237060547,
				99.99999237060547
			],
			"translation":[
				-47.829254150390625,
				-384.3683776855469,
				-602.5731811523438
			]
		},
		{
			"extensions":{
				"KHR_lights_punctual":{
					"light":7
				}
			},
			"name":"tail light right",
			"rotation":[
				-1,
				0,
				0,
				5.486322152137291e-08
			],
			"scale":[
				100,
				99.99999237060547,
				99.99999237060547
			],
			"translation":[
				-248.99888610839844,
				-326.2228088378906,
				-602.5731811523438
			]
		},
		{
			"mesh":13,
			"name":"wheel front left",
			"rotation":[
				0.06975644081830978,
				0,
				0,
				0.9975640773773193
			],
			"translation":[
				-322.37396240234375,
				348.385986328125,
				-139.7230987548828
			]
		},
		{
			"mesh":14,
			"name":"wheel front right",
			"rotation":[
				0,
				0.9975640773773193,
				0.06975645571947098,
				3.108389705630543e-07
			],
			"translation":[
				322.2569885253906,
				348.385986328125,
				-139.72311401367188
			]
		},
		{
			"children":[
				1,
				2,
				3,
				4,
				5,
				6,
				7,
				9,
				10,
				15,
				16,
				17,
				18,
				19,
				20,
				21,
				22
			],
			"mesh":15,
			"name":"robot",
			"rotation":[
				0.7071068286895752,
				0,
				0,
				0.7071068286895752
			],
			"scale":[
				0.009999999776482582,
				0.009999999776482582,
				0.009999999776482582
			]
		}
	],
	"animations":[
		{
			"channels":[
				{
					"sampler":0,
					"target":{
						"node":23,
						"path":"translation"
					}
				},
				{
					"sampler":1,
					"target":{
						"node":23,
						"path":"rotation"
					}
				},
				{
					"sampler":2,
					"target":{
						"node":15,
						"path":"rotation"
					}
				},
				{
					"sampler":3,
					"target":{
						"node":11,
						"path":"rotation"
					}
				},
				{
					"sampler":4,
					"target":{
						"node":12,
						"path":"rotation"
					}
				},
				{
					"sampler":5,
					"target":{
						"node":21,
						"path":"rotation"
					}
				},
				{
					"sampler":6,
					"target":{
						"node":22,
						"path":"rotation"
					}
				}
			],
			"name":"rocker",
			"samplers":[
				{
					"input":67,
					"interpolation":"LINEAR",
					"output":68
				},
				{
					"input":67,
					"interpolation":"LINEAR",
					"output":69
				},
				{
					"input":67,
					"interpolation":"LINEAR",
					"output":70
				},
				{
					"input":67,
					"interpolation":"LINEAR",
					"output":71
				},
				{
					"input":67,
					"interpolation":"LINEAR",
					"output":72
				},
				{
					"input":67,
					"interpolation":"LINEAR",
					"output":73
				},
				{
					"input":67,
					"interpolation":"LINEAR",
					"output":74
				}
			]
		},
		{
			"channels":[
				{
					"sampler":0,
					"target":{
						"node":9,
						"path":"translation"
					}
				},
				{
					"sampler":1,
					"target":{
						"node":9,
						"path":"rotation"
					}
				}
			],
			"name":"open lid",
			"samplers":[
				{
					"input":67,
					"interpolation":"LINEAR",
					"output":75
				},
				{
					"input":67,
					"interpolation":"LINEAR",
					"output":76
				}
			]
		},
		{
			"channels":[
				{
					"sampler":0,
					"target":{
						"node":8,
						"path":"translation"
					}
				}
			],
			"name":"lid inside",
			"samplers":[
				{
					"input":67,
					"interpolation":"LINEAR",
					"output":77
				}
			]
		}
	],
	"materials":[
		{
			"doubleSided":true,
			"extensions":{
				"KHR_materials_specular":{
					"specularColorFactor":[
						1.3193877935409546,
						1.3193877935409546,
						1.3193877935409546
					]
				}
			},
			"name":"Back",
			"normalTexture":{
				"index":0
			},
			"pbrMetallicRoughness":{
				"baseColorTexture":{
					"index":1,
					"texCoord":1
				},
				"metallicFactor":0.8863636255264282,
				"roughnessFactor":0.761363685131073
			}
		},
		{
			"doubleSided":true,
			"extensions":{
				"KHR_materials_specular":{
					"specularColorFactor":[
						1.3193877935409546,
						1.3193877935409546,
						1.3193877935409546
					]
				}
			},
			"name":"Front",
			"normalTexture":{
				"index":2
			},
			"pbrMetallicRoughness":{
				"baseColorTexture":{
					"index":3,
					"texCoord":1
				},
				"metallicFactor":0.8863636255264282,
				"roughnessFactor":0.761363685131073
			}
		},
		{
			"doubleSided":true,
			"extensions":{
				"KHR_materials_specular":{
					"specularColorFactor":[
						1.4436113834381104,
						1.4436113834381104,
						1.4436113834381104
					]
				}
			},
			"name":"body inside dark",
			"pbrMetallicRoughness":{
				"baseColorFactor":[
					0.05447991564869881,
					0.057805467396974564,
					0.06301004439592361,
					1
				],
				"metallicFactor":0.13181816041469574,
				"roughnessFactor":0.9659091234207153
			}
		},
		{
			"doubleSided":true,
			"extensions":{
				"KHR_materials_specular":{
					"specularColorFactor":[
						1.3193877935409546,
						1.3193877935409546,
						1.3193877935409546
					]
				}
			},
			"name":"Left",
			"normalTexture":{
				"index":4
			},
			"pbrMetallicRoughness":{
				"baseColorTexture":{
					"index":5,
					"texCoord":1
				},
				"metallicFactor":0.8863636255264282,
				"roughnessFactor":0.761363685131073
			}
		},
		{
			"doubleSided":true,
			"extensions":{
				"KHR_materials_specular":{
					"specularColorFactor":[
						1.3193877935409546,
						1.3193877935409546,
						1.3193877935409546
					]
				}
			},
			"name":"Right",
			"normalTexture":{
				"index":6
			},
			"pbrMetallicRoughness":{
				"baseColorTexture":{
					"index":7,
					"texCoord":1
				},
				"metallicFactor":0.8863636255264282,
				"roughnessFactor":0.761363685131073
			}
		},
		{
			"doubleSided":true,
			"extensions":{
				"KHR_materials_specular":{
					"specularColorFactor":[
						1.4436113834381104,
						1.4436113834381104,
						1.4436113834381104
					]
				}
			},
			"name":"body inside light",
			"pbrMetallicRoughness":{
				"metallicFactor":0.13181816041469574,
				"roughnessFactor":0.9659091234207153
			}
		},
		{
			"doubleSided":true,
			"extensions":{
				"KHR_materials_specular":{
					"specularColorFactor":[
						1.3193877935409546,
						1.3193877935409546,
						1.3193877935409546
					]
				}
			},
			"name":"Lid",
			"normalTexture":{
				"index":8
			},
			"pbrMetallicRoughness":{
				"baseColorTexture":{
					"index":9,
					"texCoord":1
				},
				"metallicFactor":0.8863636255264282,
				"roughnessFactor":0.761363685131073
			}
		},
		{
			"doubleSided":true,
			"extensions":{
				"KHR_materials_specular":{
					"specularColorFactor":[
						1.3193877935409546,
						1.3193877935409546,
						1.3193877935409546
					]
				}
			},
			"name":"body",
			"normalTexture":{
				"index":10
			},
			"pbrMetallicRoughness":{
				"baseColorTexture":{
					"index":11
				},
				"metallicFactor":0.8863636255264282,
				"roughnessFactor":0.761363685131073
			}
		},
		{
			"doubleSided":true,
			"extensions":{
				"KHR_materials_clearcoat":{
					"clearcoatRoughnessFactor":0.23134228587150574
				},
				"KHR_materials_specular":{
					"specularFactor":0.2909089922904968,
					"specularColorFactor":[
						0.2947111129760742,
						0.2947111129760742,
						0.2947111129760742
					]
				}
			},
			"name":"wheel",
			"normalTexture":{
				"index":12
			},
			"pbrMetallicRoughness":{
				"baseColorTexture":{
					"index":13
				},
				"metallicFactor":0.9295454621315002,
				"roughnessFactor":0.7613636255264282
			}
		}
	],
	"meshes":[
		{
			"name":"body back",
			"primitives":[
				{
					"attributes":{
						"POSITION":0,
						"NORMAL":1,
						"TEXCOORD_0":2,
						"TEXCOORD_1":3
					},
					"indices":4,
					"material":0
				}
			]
		},
		{
			"name":"body front",
			"primitives":[
				{
					"attributes":{
						"POSITION":5,
						"NORMAL":6,
						"TEXCOORD_0":7,
						"TEXCOORD_1":8
					},
					"indices":9,
					"material":1
				}
			]
		},
		{
			"name":"body inside",
			"primitives":[
				{
					"attributes":{
						"POSITION":10,
						"NORMAL":11,
						"TEXCOORD_0":12
					},
					"indices":13,
					"material":2
				}
			]
		},
		{
			"name":"body left",
			"primitives":[
				{
					"attributes":{
						"POSITION":14,
						"NORMAL":15,
						"TEXCOORD_0":16,
						"TEXCOORD_1":17
					},
					"indices":18,
					"material":3
				}
			]
		},
		{
			"name":"body right",
			"primitives":[
				{
					"attributes":{
						"POSITION":19,
						"NORMAL":20,
						"TEXCOORD_0":21,
						"TEXCOORD_1":22
					},
					"indices":23,
					"material":4
				}
			]
		},
		{
			"name":"lid inside",
			"primitives":[
				{
					"attributes":{
						"POSITION":24,
						"NORMAL":25,
						"TEXCOORD_0":26,
						"TEXCOORD_1":27,
						"TEXCOORD_2":28,
						"TEXCOORD_3":29
					},
					"indices":30,
					"material":5
				}
			]
		},
		{
			"name":"lid outside",
			"primitives":[
				{
					"attributes":{
						"POSITION":31,
						"NORMAL":32,
						"TEXCOORD_0":33,
						"TEXCOORD_1":34
					},
					"indices":35,
					"material":6
				}
			]
		},
		{
			"name":"Cube.016",
			"primitives":[
				{
					"attributes":{
						"POSITION":36,
						"NORMAL":37,
						"TEXCOORD_0":38
					},
					"indices":39,
					"material":7
				}
			]
		},
		{
			"name":"Cube.007",
			"primitives":[
				{
					"attributes":{
						"POSITION":40,
						"NORMAL":41,
						"TEXCOORD_0":42
					},
					"indices":43,
					"material":8
				}
			]
		},
		{
			"name":"Cube.012",
			"primitives":[
				{
					"attributes":{
						"POSITION":44,
						"NORMAL":45,
						"TEXCOORD_0":46
					},
					"indices":43,
					"material":8
				}
			]
		},
		{
			"name":"Cube.008",
			"primitives":[
				{
					"attributes":{
						"POSITION":47,
						"NORMAL":48,
						"TEXCOORD_0":49
					},
					"indices":43,
					"material":8
				}
			]
		},
		{
			"name":"Cube.011",
			"primitives":[
				{
					"attributes":{
						"POSITION":50,
						"NORMAL":51,
						"TEXCOORD_0":52
					},
					"indices":43,
					"material":8
				}
			]
		},
		{
			"name":"Cube.003",
			"primitives":[
				{
					"attributes":{
						"POSITION":53,
						"NORMAL":54,
						"TEXCOORD_0":55
					},
					"indices":56,
					"material":7
				}
			]
		},
		{
			"name":"Cube.009",
			"primitives":[
				{
					"attributes":{
						"POSITION":57,
						"NORMAL":58,
						"TEXCOORD_0":59
					},
					"indices":43,
					"material":8
				}
			]
		},
		{
			"name":"Cube.010",
			"primitives":[
				{
					"attributes":{
						"POSITION":60,
						"NORMAL":61,
						"TEXCOORD_0":62
					},
					"indices":43,
					"material":8
				}
			]
		},
		{
			"name":"body",
			"primitives":[
				{
					"attributes":{
						"POSITION":63,
						"NORMAL":64,
						"TEXCOORD_0":65
					},
					"indices":66,
					"material":7
				}
			]
		}
	],
	"textures":[
		{
			"sampler":0,
			"source":0
		},
		{
			"sampler":0,
			"source":1
		},
		{
			"sampler":0,
			"source":0
		},
		{
			"sampler":0,
			"source":2
		},
		{
			"sampler":0,
			"source":0
		},
		{
			"sampler":0,
			"source":3
		},
		{
			"sampler":0,
			"source":0
		},
		{
			"sampler":0,
			"source":4
		},
		{
			"sampler":0,
			"source":0
		},
		{
			"sampler":0,
			"source":5
		},
		{
			"sampler":0,
			"source":0
		},
		{
			"sampler":0,
			"source":6
		},
		{
			"sampler":0,
			"source":0
		},
		{
			"sampler":0,
			"source":6
		}
	],
	"images":[
		{
			"mimeType":"image/png",
			"name":"e-model_n",
			"uri":"e-model_n.png"
		},
		{
			"mimeType":"image/png",
			"name":"back",
			"uri":"back.png"
		},
		{
			"mimeType":"image/png",
			"name":"front",
			"uri":"front.png"
		},
		{
			"mimeType":"image/png",
			"name":"left",
			"uri":"left.png"
		},
		{
			"mimeType":"image/png",
			"name":"right",
			"uri":"right.png"
		},
		{
			"mimeType":"image/png",
			"name":"lid",
			"uri":"lid.png"
		},
		{
			"mimeType":"image/png",
			"name":"e-model_d",
			"uri":"e-model_d.png"
		}
	],
	"accessors":[
		{
			"bufferView":0,
			"componentType":5126,
			"count":48,
			"max":[
				270.2444152832031,
				-289.18701171875,
				-343.6789855957031
			],
			"min":[
				-269.8263244628906,
				-392.8455810546875,
				-585.010498046875
			],
			"type":"VEC3"
		},
		{
			"bufferView":1,
			"componentType":5126,
			"count":48,
			"type":"VEC3"
		},
		{
			"bufferView":2,
			"componentType":5126,
			"count":48,
			"type":"VEC2"
		},
		{
			"bufferView":3,
			"componentType":5126,
			"count":48,
			"type":"VEC2"
		},
		{
			"bufferView":4,
			"componentType":5123,
			"count":156,
			"type":"SCALAR"
		},
		{
			"bufferView":5,
			"componentType":5126,
			"count":78,
			"max":[
				265.8598937988281,
				450.1839599609375,
				-256.22149658203125
			],
			"min":[
				-265.86004638671875,
				335.7648620605469,
				-474.2479248046875
			],
			"type":"VEC3"
		},
		{
			"bufferView":6,
			"componentType":5126,
			"count":78,
			"type":"VEC3"
		},
		{
			"bufferView":7,
			"componentType":5126,
			"count":78,
			"type":"VEC2"
		},
		{
			"bufferView":8,
			"componentType":5126,
			"count":78,
			"type":"VEC2"
		},
		{
			"bufferView":9,
			"componentType":5123,
			"count":237,
			"type":"SCALAR"
		},
		{
			"bufferView":10,
			"componentType":5126,
			"count":194,
			"max":[
				287.5730285644531,
				459.8314514160156,
				-278.1829528808594
			],
			"min":[
				-287.4126892089844,
				-388.1640319824219,
				-626.232177734375
			],
			"type":"VEC3"
		},
		{
			"bufferView":11,
			"componentType":5126,
			"count":194,
			"type":"VEC3"
		},
		{
			"bufferView":12,
			"componentType":5126,
			"count":194,
			"type":"VEC2"
		},
		{
			"bufferView":13,
			"componentType":5123,
			"count":531,
			"type":"SCALAR"
		},
		{
			"bufferView":14,
			"componentType":5126,
			"count":54,
			"max":[
				294.85943603515625,
				337.616943359375,
				-329.3066101074219
			],
			"min":[
				258.60626220703125,
				-289.5217590332031,
				-584.388916015625
			],
			"type":"VEC3"
		},
		{
			"bufferView":15,
			"componentType":5126,
			"count":54,
			"type":"VEC3"
		},
		{
			"bufferView":16,
			"componentType":5126,
			"count":54,
			"type":"VEC2"
		},
		{
			"bufferView":17,
			"componentType":5126,
			"count":54,
			"type":"VEC2"
		},
		{
			"bufferView":18,
			"componentType":5123,
			"count":123,
			"type":"SCALAR"
		},
		{
			"bufferView":19,
			"componentType":5126,
			"count":77,
			"max":[
				-258.60638427734375,
				337.59332275390625,
				-331.4353332519531
			],
			"min":[
				-301.25103759765625,
				-290.6136779785156,
				-584.4048461914062
			],
			"type":"VEC3"
		},
		{
			"bufferView":20,
			"componentType":5126,
			"count":77,
			"type":"VEC3"
		},
		{
			"bufferView":21,
			"componentType":5126,
			"count":77,
			"type":"VEC2"
		},
		{
			"bufferView":22,
			"componentType":5126,
			"count":77,
			"type":"VEC2"
		},
		{
			"bufferView":23,
			"componentType":5123,
			"count":156,
			"type":"SCALAR"
		},
		{
			"bufferView":24,
			"componentType":5126,
			"count":151,
			"max":[
				303.71099853515625,
				12.4119873046875,
				11.0565185546875
			],
			"min":[
				-303.71112060546875,
				-856.5379028320312,
				-59.44879150390625
			],
			"type":"VEC3"
		},
		{
			"bufferView":25,
			"componentType":5126,
			"count":151,
			"type":"VEC3"
		},
		{
			"bufferView":26,
			"componentType":5126,
			"count":151,
			"type":"VEC2"
		},
		{
			"bufferView":27,
			"componentType":5126,
			"count":151,
			"type":"VEC2"
		},
		{
			"bufferView":28,
			"componentType":5126,
			"count":151,
			"type":"VEC2"
		},
		{
			"bufferView":29,
			"componentType":5126,
			"count":151,
			"type":"VEC2"
		},
		{
			"bufferView":30,
			"componentType":5123,
			"count":525,
			"type":"SCALAR"
		},
		{
			"bufferView":31,
			"componentType":5126,
			"count":101,
			"max":[
				303.71099853515625,
				12.412078857421875,
				11.05657958984375
			],
			"min":[
				-303.71112060546875,
				-856.537841796875,
				-71.68304443359375
			],
			"type":"VEC3"
		},
		{
			"bufferView":32,
			"componentType":5126,
			"count":101,
			"type":"VEC3"
		},
		{
			"bufferView":33,
			"componentType":5126,
			"count":101,
			"type":"VEC2"
		},
		{
			"bufferView":34,
			"componentType":5126,
			"count":101,
			"type":"VEC2"
		},
		{
			"bufferView":35,
			"componentType":5123,
			"count":375,
			"type":"SCALAR"
		},
		{
			"bufferView":36,
			"componentType":5126,
			"count":110,
			"max":[
				61.22216796875,
				34.22845458984375,
				34.255279541015625
			],
			"min":[
				-88.67636108398438,
				-115.1656494140625,
				-841.2546997070312
			],
			"type":"VEC3"
		},
		{
			"bufferView":37,
			"componentType":5126,
			"count":110,
			"type":"VEC3"
		},
		{
			"bufferView":38,
			"componentType":5126,
			"count":110,
			"type":"VEC2"
		},
		{
			"bufferView":39,
			"componentType":5123,
			"count":168,
			"type":"SCALAR"
		},
		{
			"bufferView":40,
			"componentType":5126,
			"count":130,
			"max":[
				22.38238525390625,
				139.21263122558594,
				139.20008850097656
			],
			"min":[
				-22.38232421875,
				-139.21258544921875,
				-139.20010375976562
			],
			"type":"VEC3"
		},
		{
			"bufferView":41,
			"componentType":5126,
			"count":130,
			"type":"VEC3"
		},
		{
			"bufferView":42,
			"componentType":5126,
			"count":130,
			"type":"VEC2"
		},
		{
			"bufferView":43,
			"componentType":5123,
			"count":372,
			"type":"SCALAR"
		},
		{
			"bufferView":44,
			"componentType":5126,
			"count":130,
			"max":[
				22.382293701171875,
				139.21261596679688,
				139.2001190185547
			],
			"min":[
				-22.382415771484375,
				-139.2126007080078,
				-139.2000732421875
			],
			"type":"VEC3"
		},
		{
			"bufferView":45,
			"componentType":5126,
			"count":130,
			"type":"VEC3"
		},
		{
			"bufferView":46,
			"componentType":5126,
			"count":130,
			"type":"VEC2"
		},
		{
			"bufferView":47,
			"componentType":5126,
			"count":130,
			"max":[
				22.38238525390625,
				139.21263122558594,
				139.2000274658203
			],
			"min":[
				-22.38232421875,
				-139.21258544921875,
				-139.20016479492188
			],
			"type":"VEC3"
		},
		{
			"bufferView":48,
			"componentType":5126,
			"count":130,
			"type":"VEC3"
		},
		{
			"bufferView":49,
			"componentType":5126,
			"count":130,
			"type":"VEC2"
		},
		{
			"bufferView":50,
			"componentType":5126,
			"count":130,
			"max":[
				22.382293701171875,
				139.21261596679688,
				139.20008850097656
			],
			"min":[
				-22.382415771484375,
				-139.2126007080078,
				-139.20010375976562
			],
			"type":"VEC3"
		},
		{
			"bufferView":51,
			"componentType":5126,
			"count":130,
			"type":"VEC3"
		},
		{
			"bufferView":52,
			"componentType":5126,
			"count":130,
			"type":"VEC2"
		},
		{
			"bufferView":53,
			"componentType":5126,
			"count":140,
			"max":[
				301.15460205078125,
				183.97515869140625,
				39.388999938964844
			],
			"min":[
				-303.6566162109375,
				-183.69100952148438,
				-41.63902282714844
			],
			"type":"VEC3"
		},
		{
			"bufferView":54,
			"componentType":5126,
			"count":140,
			"type":"VEC3"
		},
		{
			"bufferView":55,
			"componentType":5126,
			"count":140,
			"type":"VEC2"
		},
		{
			"bufferView":56,
			"componentType":5123,
			"count":240,
			"type":"SCALAR"
		},
		{
			"bufferView":57,
			"componentType":5126,
			"count":130,
			"max":[
				22.382362365722656,
				139.2126007080078,
				139.2000732421875
			],
			"min":[
				-22.382362365722656,
				-139.21261596679688,
				-139.2001190185547
			],
			"type":"VEC3"
		},
		{
			"bufferView":58,
			"componentType":5126,
			"count":130,
			"type":"VEC3"
		},
		{
			"bufferView":59,
			"componentType":5126,
			"count":130,
			"type":"VEC2"
		},
		{
			"bufferView":60,
			"componentType":5126,
			"count":130,
			"max":[
				22.382362365722656,
				139.2126007080078,
				139.2000732421875
			],
			"min":[
				-22.382362365722656,
				-139.21261596679688,
				-139.2001190185547
			],
			"type":"VEC3"
		},
		{
			"bufferView":61,
			"componentType":5126,
			"count":130,
			"type":"VEC3"
		},
		{
			"bufferView":62,
			"componentType":5126,
			"count":130,
			"type":"VEC2"
		},
		{
			"bufferView":63,
			"componentType":5126,
			"count":466,
			"max":[
				299.60931396484375,
				459.8313293457031,
				-116.4437255859375
			],
			"min":[
				-299.6094665527344,
				-392.3974914550781,
				-626.2005004882812
			],
			"type":"VEC3"
		},
		{
			"bufferView":64,
			"componentType":5126,
			"count":466,
			"type":"VEC3"
		},
		{
			"bufferView":65,
			"componentType":5126,
			"count":466,
			"type":"VEC2"
		},
		{
			"bufferView":66,
			"componentType":5123,
			"count":1251,
			"type":"SCALAR"
		},
		{
			"bufferView":67,
			"componentType":5126,
			"count":40,
			"max":[
				0.6666666666666666
			],
			"min":[
				0.016666666666666666
			],
			"type":"SCALAR"
		},
		{
			"bufferView":68,
			"componentType":5126,
			"count":40,
			"type":"VEC3"
		},
		{
			"bufferView":69,
			"componentType":5126,
			"count":40,
			"type":"VEC4"
		},
		{
			"bufferView":70,
			"componentType":5126,
			"count":40,
			"type":"VEC4"
		},
		{
			"bufferView":71,
			"componentType":5126,
			"count":40,
			"type":"VEC4"
		},
		{
			"bufferView":72,
			"componentType":5126,
			"count":40,
			"type":"VEC4"
		},
		{
			"bufferView":73,
			"componentType":5126,
			"count":40,
			"type":"VEC4"
		},
		{
			"bufferView":74,
			"componentType":5126,
			"count":40,
			"type":"VEC4"
		},
		{
			"bufferView":75,
			"componentType":5126,
			"count":40,
			"type":"VEC3"
		},
		{
			"bufferView":76,
			"componentType":5126,
			"count":40,
			"type":"VEC4"
		},
		{
			"bufferView":77,
			"componentType":5126,
			"count":40,
			"type":"VEC3"
		}
	],
	"bufferViews":[
		{
			"buffer":0,
			"byteLength":576,
			"byteOffset":0,
			"target":34962
		},
		{
			"buffer":0,
			"byteLength":576,
			"byteOffset":576,
			"target":34962
		},
		{
			"buffer":0,
			"byteLength":384,
			"byteOffset":1152,
			"target":34962
		},
		{
			"buffer":0,
			"byteLength":384,
			"byteOffset":1536,
			"target":34962
		},
		{
			"buffer":0,
			"byteLength":312,
			"byteOffset":1920,
			"target":34963
		},
		{
			"buffer":0,
			"byteLength":936,
			"byteOffset":2232,
			"target":34962
		},
		{
			"buffer":0,
			"byteLength":936,
			"byteOffset":3168,
			"target":34962
		},
		{
			"buffer":0,
			"byteLength":624,
			"byteOffset":4104,
			"target":34962
		},
		{
			"buffer":0,
			"byteLength":624,
			"byteOffset":4728,
			"target":34962
		},
		{
			"buffer":0,
			"byteLength":474,
			"byteOffset":5352,
			"target":34963
		},
		{
			"buffer":0,
			"byteLength":2328,
			"byteOffset":5828,
			"target":34962
		},
		{
			"buffer":0,
			"byteLength":2328,
			"byteOffset":8156,
			"target":34962
		},
		{
			"buffer":0,
			"byteLength":1552,
			"byteOffset":10484,
			"target":34962
		},
		{
			"buffer":0,
			"byteLength":1062,
			"byteOffset":12036,
			"target":34963
		},
		{
			"buffer":0,
			"byteLength":648,
			"byteOffset":13100,
			"target":34962
		},
		{
			"buffer":0,
			"byteLength":648,
			"byteOffset":13748,
			"target":34962
		},
		{
			"buffer":0,
			"byteLength":432,
			"byteOffset":14396,
			"target":34962
		},
		{
			"buffer":0,
			"byteLength":432,
			"byteOffset":14828,
			"target":34962
		},
		{
			"buffer":0,
			"byteLength":246,
			"byteOffset":15260,
			"target":34963
		},
		{
			"buffer":0,
			"byteLength":924,
			"byteOffset":15508,
			"target":34962
		},
		{
			"buffer":0,
			"byteLength":924,
			"byteOffset":16432,
			"target":34962
		},
		{
			"buffer":0,
			"byteLength":616,
			"byteOffset":17356,
			"target":34962
		},
		{
			"buffer":0,
			"byteLength":616,
			"byteOffset":17972,
			"target":34962
		},
		{
			"buffer":0,
			"byteLength":312,
			"byteOffset":18588,
			"target":34963
		},
		{
			"buffer":0,
			"byteLength":1812,
			"byteOffset":18900,
			"target":34962
		},
		{
			"buffer":0,
			"byteLength":1812,
			"byteOffset":20712,
			"target":34962
		},
		{
			"buffer":0,
			"byteLength":1208,
			"byteOffset":22524,
			"target":34962
		},
		{
			"buffer":0,
			"byteLength":1208,
			"byteOffset":23732,
			"target":34962
		},
		{
			"buffer":0,
			"byteLength":1208,
			"byteOffset":24940,
			"target":34962
		},
		{
			"buffer":0,
			"byteLength":1208,
			"byteOffset":26148,
			"target":34962
		},
		{
			"buffer":0,
			"byteLength":1050,
			"byteOffset":27356,
			"target":34963
		},
		{
			"buffer":0,
			"byteLength":1212,
			"byteOffset":28408,
			"target":34962
		},
		{
			"buffer":0,
			"byteLength":1212,
			"byteOffset":29620,
			"target":34962
		},
		{
			"buffer":0,
			"byteLength":808,
			"byteOffset":30832,
			"target":34962
		},
		{
			"buffer":0,
			"byteLength":808,
			"byteOffset":31640,
			"target":34962
		},
		{
			"buffer":0,
			"byteLength":750,
			"byteOffset":32448,
			"target":34963
		},
		{
			"buffer":0,
			"byteLength":1320,
			"byteOffset":33200,
			"target":34962
		},
		{
			"buffer":0,
			"byteLength":1320,
			"byteOffset":34520,
			"target":34962
		},
		{
			"buffer":0,
			"byteLength":880,
			"byteOffset":35840,
			"target":34962
		},
		{
			"buffer":0,
			"byteLength":336,
			"byteOffset":36720,
			"target":34963
		},
		{
			"buffer":0,
			"byteLength":1560,
			"byteOffset":37056,
			"target":34962
		},
		{
			"buffer":0,
			"byteLength":1560,
			"byteOffset":38616,
			"target":34962
		},
		{
			"buffer":0,
			"byteLength":1040,
			"byteOffset":40176,
			"target":34962
		},
		{
			"buffer":0,
			"byteLength":744,
			"byteOffset":41216,
			"target":34963
		},
		{
			"buffer":0,
			"byteLength":1560,
			"byteOffset":41960,
			"target":34962
		},
		{
			"buffer":0,
			"byteLength":1560,
			"byteOffset":43520,
			"target":34962
		},
		{
			"buffer":0,
			"byteLength":1040,
			"byteOffset":45080,
			"target":34962
		},
		{
			"buffer":0,
			"byteLength":1560,
			"byteOffset":46120,
			"target":34962
		},
		{
			"buffer":0,
			"byteLength":1560,
			"byteOffset":47680,
			"target":34962
		},
		{
			"buffer":0,
			"byteLength":1040,
			"byteOffset":49240,
			"target":34962
		},
		{
			"buffer":0,
			"byteLength":1560,
			"byteOffset":50280,
			"target":34962
		},
		{
			"buffer":0,
			"byteLength":1560,
			"byteOffset":51840,
			"target":34962
		},
		{
			"buffer":0,
			"byteLength":1040,
			"byteOffset":53400,
			"target":34962
		},
		{
			"buffer":0,
			"byteLength":1680,
			"byteOffset":54440,
			"target":34962
		},
		{
			"buffer":0,
			"byteLength":1680,
			"byteOffset":56120,
			"target":34962
		},
		{
			"buffer":0,
			"byteLength":1120,
			"byteOffset":57800,
			"target":34962
		},
		{
			"buffer":0,
			"byteLength":480,
			"byteOffset":58920,
			"target":34963
		},
		{
			"buffer":0,
			"byteLength":1560,
			"byteOffset":59400,
			"target":34962
		},
		{
			"buffer":0,
			"byteLength":1560,
			"byteOffset":60960,
			"target":34962
		},
		{
			"buffer":0,
			"byteLength":1040,
			"byteOffset":62520,
			"target":34962
		},
		{
			"buffer":0,
			"byteLength":1560,
			"byteOffset":63560,
			"target":34962
		},
		{
			"buffer":0,
			"byteLength":1560,
			"byteOffset":65120,
			"target":34962
		},
		{
			"buffer":0,
			"byteLength":1040,
			"byteOffset":66680,
			"target":34962
		},
		{
			"buffer":0,
			"byteLength":5592,
			"byteOffset":67720,
			"target":34962
		},
		{
			"buffer":0,
			"byteLength":5592,
			"byteOffset":73312,
			"target":34962
		},
		{
			"buffer":0,
			"byteLength":3728,
			"byteOffset":78904,
			"target":34962
		},
		{
			"buffer":0,
			"byteLength":2502,
			"byteOffset":82632,
			"target":34963
		},
		{
			"buffer":0,
			"byteLength":160,
			"byteOffset":85136
		},
		{
			"buffer":0,
			"byteLength":480,
			"byteOffset":85296
		},
		{
			"buffer":0,
			"byteLength":640,
			"byteOffset":85776
		},
		{
			"buffer":0,
			"byteLength":640,
			"byteOffset":86416
		},
		{
			"buffer":0,
			"byteLength":640,
			"byteOffset":87056
		},
		{
			"buffer":0,
			"byteLength":640,
			"byteOffset":87696
		},
		{
			"buffer":0,
			"byteLength":640,
			"byteOffset":88336
		},
		{
			"buffer":0,
			"byteLength":640,
			"byteOffset":88976
		},
		{
			"buffer":0,
			"byteLength":480,
			"byteOffset":89616
		},
		{
			"buffer":0,
			"byteLength":640,
			"byteOffset":90096
		},
		{
			"buffer":0,
			"byteLength":480,
			"byteOffset":90736
		}
	],
	"samplers":[
		{
			"magFilter":9729,
			"minFilter":9987
		}
	],
	"buffers":[
		{
			"byteLength":91216,
			"uri":"e-model.bin"
		}
	]
}
